<svg xmlns="http://www.w3.org/2000/svg" width="322.75" height="248.6" viewBox="0 0 322.75 248.6">
  <g id="Grupo_16" data-name="Grupo 16" transform="translate(-105.082 -294.715)">
    <path id="Caminho_25" data-name="Caminho 25" d="M105.082,503.317V314.977h93.88V503.071H159.024v26.787H259.517V523.58H206.325V294.715H326.817V523.377h-53.38v6.535H374.074V503.357h-39.79V314.921h93.548V503.005H387.975v40.309H145.511v-40Zm208.37,6.479V308.2h-93.82V509.8ZM118.664,328.208V489.492h66.849V328.208Zm228.954,0V489.5h66.866V328.208Z" fill="#29639e"/>
    <path id="Caminho_26" data-name="Caminho 26" d="M323.909,398.545v12.8h-66.9v-12.8Z" transform="translate(-23.817 -16.276)" fill="#29639e"/>
    <path id="Caminho_27" data-name="Caminho 27" d="M323.907,422.367v12.85H256.994v-12.85Z" transform="translate(-23.814 -20.011)" fill="#29639e"/>
    <path id="Caminho_28" data-name="Caminho 28" d="M256.84,459.18V446.326h66.909V459.18Z" transform="translate(-23.79 -23.767)" fill="#29639e"/>
    <path id="Caminho_29" data-name="Caminho 29" d="M256.836,483.194V470.365H323.75v12.829Z" transform="translate(-23.789 -27.535)" fill="#29639e"/>
    <path id="Caminho_30" data-name="Caminho 30" d="M323.791,494.358V507.23H256.956V494.358Z" transform="translate(-23.808 -31.296)" fill="#29639e"/>
    <path id="Caminho_31" data-name="Caminho 31" d="M256.833,531.211V518.442h66.905v12.769Z" transform="translate(-23.789 -35.071)" fill="#29639e"/>
    <path id="Caminho_32" data-name="Caminho 32" d="M312.915,318.578h19.609v12.9H312.915Z" transform="translate(-32.58 -3.741)" fill="#29639e"/>
    <path id="Caminho_33" data-name="Caminho 33" d="M177.124,398.3v13.008H137.3V398.3Z" transform="translate(-5.05 -16.239)" fill="#29639e"/>
    <path id="Caminho_34" data-name="Caminho 34" d="M177.072,435.312H137.159V422.323h39.913Z" transform="translate(-5.028 -20.004)" fill="#29639e"/>
    <path id="Caminho_35" data-name="Caminho 35" d="M177.176,446.411v12.811H137.211V446.411Z" transform="translate(-5.037 -23.78)" fill="#29639e"/>
    <path id="Caminho_36" data-name="Caminho 36" d="M137.039,483.251V470.442h39.982v12.809Z" transform="translate(-5.01 -27.547)" fill="#29639e"/>
    <path id="Caminho_37" data-name="Caminho 37" d="M137.329,494.242h39.69v13.072h-39.69Z" transform="translate(-5.055 -31.278)" fill="#29639e"/>
    <path id="Caminho_38" data-name="Caminho 38" d="M181.84,342.709v12.846H167.325V342.709Z" transform="translate(-9.757 -7.524)" fill="#29639e"/>
    <path id="Caminho_39" data-name="Caminho 39" d="M448.51,411.6h-39.7V398.526h39.7Z" transform="translate(-47.613 -16.273)" fill="#29639e"/>
    <path id="Caminho_40" data-name="Caminho 40" d="M408.558,435.351V422.58h39.978v12.771Z" transform="translate(-47.573 -20.044)" fill="#29639e"/>
    <path id="Caminho_41" data-name="Caminho 41" d="M448.594,446.547V459.4H408.7V446.547Z" transform="translate(-47.595 -23.801)" fill="#29639e"/>
    <path id="Caminho_42" data-name="Caminho 42" d="M448.595,470.447v13.07H408.754v-13.07Z" transform="translate(-47.604 -27.548)" fill="#29639e"/>
    <path id="Caminho_43" data-name="Caminho 43" d="M408.565,507.444V494.6h39.972v12.848Z" transform="translate(-47.574 -31.333)" fill="#29639e"/>
    <path id="Caminho_44" data-name="Caminho 44" d="M453.408,342.657v12.789H438.8V342.657Z" transform="translate(-52.313 -7.515)" fill="#29639e"/>
  </g>
</svg>
