<svg xmlns="http://www.w3.org/2000/svg" width="24.956" height="24.956" viewBox="0 0 24.956 24.956"><defs><style>.a{fill:#fff;}</style></defs><g transform="translate(-0.006)"><g transform="translate(0.006)"><path class="a" d="M18.979,60.251a1.749,1.749,0,0,0-2.643,0c-.618.613-1.236,1.226-1.844,1.849a.364.364,0,0,1-.509.093c-.4-.218-.826-.395-1.21-.634a19.172,19.172,0,0,1-4.622-4.206A10.95,10.95,0,0,1,6.495,54.7a.38.38,0,0,1,.093-.488c.618-.6,1.22-1.21,1.828-1.823a1.755,1.755,0,0,0-.005-2.706c-.483-.488-.966-.966-1.449-1.454-.5-.5-.992-1-1.5-1.5a1.76,1.76,0,0,0-2.643.005C2.2,47.351,1.6,47.979.969,48.581a3.009,3.009,0,0,0-.945,2.031,8.6,8.6,0,0,0,.665,3.7,22.5,22.5,0,0,0,3.994,6.652,24.713,24.713,0,0,0,8.184,6.4A11.837,11.837,0,0,0,17.4,68.689,3.323,3.323,0,0,0,20.251,67.6c.53-.592,1.127-1.132,1.688-1.7a1.767,1.767,0,0,0,.01-2.69Q20.469,61.728,18.979,60.251Z" transform="translate(-0.006 -43.741)"/><path class="a" d="M243.483,103.385l1.916-.327A8.6,8.6,0,0,0,238.124,96l-.27,1.927a6.648,6.648,0,0,1,5.629,5.458Z" transform="translate(-225.502 -91.015)"/><path class="a" d="M251.125,4.04a14.13,14.13,0,0,0-8.1-4.04l-.27,1.927a12.329,12.329,0,0,1,10.433,10.111l1.916-.327A14.234,14.234,0,0,0,251.125,4.04Z" transform="translate(-230.148)"/></g></g></svg>