<svg xmlns="http://www.w3.org/2000/svg" width="304.125" height="315.298" viewBox="0 0 304.125 315.298"><defs><style>.a,.b{fill:none;stroke:#29639e;stroke-width:20px;}.a{stroke-linecap:round;stroke-linejoin:round;}.b{stroke-miterlimit:10;}</style></defs><g transform="translate(-119.721 -249.095)"><path class="a" d="M192.456,393.687H367.7s39.427-5.47,35.412-50.674c-3.633-40.895-63.559-42.673-76.272-29.338,0,0,.018-54.58-52.645-54.58-58.13,0-48.142,67.3-48.142,67.3s-61.459-14.5-59.928,37.952C166.87,389.912,192.456,393.687,192.456,393.687Z" transform="translate(-7.867)"/><path class="a" d="M387.825,430.826v59.729h43.559" transform="translate(-55.819 -37.139)"/><path class="a" d="M220.017,430.826v35.969H176.457" transform="translate(-10.107 -37.139)"/><path class="a" d="M274.8,430.826v95.7H235.986" transform="translate(-22.981 -37.139)"/><line class="a" y2="124.078" transform="translate(293.109 393.687)"/><circle class="b" cx="18.315" cy="18.315" r="18.315" transform="translate(377.216 435.101)"/><circle class="b" cx="18.315" cy="18.315" r="18.315" transform="translate(274.794 517.764)"/><circle class="b" cx="18.315" cy="18.315" r="18.315" transform="translate(176.376 471.07)"/><circle class="b" cx="18.315" cy="18.315" r="18.315" transform="translate(129.721 411.341)"/></g></svg>