<svg xmlns="http://www.w3.org/2000/svg" width="191.512" height="51.403" viewBox="0 0 191.512 51.403"><defs><style>.a{fill:#fff;}</style></defs><g transform="translate(-27.127 -27.571)"><path class="a" d="M327.628,141.967h7.956q3.326.023,4.764,1.327a4.956,4.956,0,0,1,1.438,3.867,4.63,4.63,0,0,1-1.427,3.81A6.569,6.569,0,0,1,337.2,152.4a5.841,5.841,0,0,1-.719.091q-.36.023-.719.023l-3.528-.023v5.9h-4.607V141.967Zm4.607,3.2v4.1h2.113a2.8,2.8,0,0,0,1.989-.578A1.975,1.975,0,0,0,337,147.16a1.587,1.587,0,0,0-.843-1.52,4.557,4.557,0,0,0-2.168-.454l-1.753-.023ZM349.8,156.957a2.349,2.349,0,0,1-.157.306,1.556,1.556,0,0,1-.225.283,3.827,3.827,0,0,1-1.146.828,4.068,4.068,0,0,1-1.843.374,4.659,4.659,0,0,1-3.124-.828,3.489,3.489,0,0,1-1.146-1.826,3.135,3.135,0,0,1-.113-.635q-.022-.317-.023-.612a3.258,3.258,0,0,1,2.483-3.186,17.3,17.3,0,0,1,5.293-.76,7.37,7.37,0,0,0-.157-1.621q-.158-.692-1.079-.692a1.2,1.2,0,0,0-1,.386,1.757,1.757,0,0,0-.371.839q-.023.136-.034.284t-.011.283l-4.247-.023a3,3,0,0,1,1.641-2.869,8.474,8.474,0,0,1,4.023-.873,8.11,8.11,0,0,1,3.719.805,2.58,2.58,0,0,1,1.584,2.415v5.874q0,.544.045,1.224a5.516,5.516,0,0,0,.314,1.451h-4.247l-.022-.091-.068-.272q-.023-.182-.056-.442a4.785,4.785,0,0,1-.034-.6v-.023Zm0-3.923q-.27.023-.573.034a5.828,5.828,0,0,0-.618.057,5.732,5.732,0,0,0-1.427.352,1.068,1.068,0,0,0-.753.828.254.254,0,0,1-.011.079.252.252,0,0,0-.011.079.183.183,0,0,0-.023.079v.079a1.523,1.523,0,0,0,.494,1.089,1.543,1.543,0,0,0,1.124.5,1.517,1.517,0,0,0,.573-.114,1.576,1.576,0,0,0,.528-.363,2.176,2.176,0,0,0,.483-.8,4.151,4.151,0,0,0,.191-.9q.022-.249.022-.5v-.5Zm5.906-6.259h4.427a.985.985,0,0,0,.034.147,2.244,2.244,0,0,1,.056.329q.023.182.056.42a3.471,3.471,0,0,1,.034.488v.068a4.584,4.584,0,0,1,1.348-1.134,3.962,3.962,0,0,1,2-.476,7.652,7.652,0,0,1,.854.057,5.169,5.169,0,0,1,.989.215,4.5,4.5,0,0,1,1.776,1.055,2.95,2.95,0,0,1,.809,2.256v8.187h-4.248v-6.962a2.177,2.177,0,0,0-.528-1.61,1.734,1.734,0,0,0-1.18-.544h-.068a1.814,1.814,0,0,0-1.2.544,1.9,1.9,0,0,0-.55,1.451v7.121H355.89v-9.116q0-.454-.023-.9t-.067-.8q-.022-.34-.056-.556l-.034-.215v-.023Zm21.3,10.182a2.357,2.357,0,0,1-.157.306,1.566,1.566,0,0,1-.225.283,3.827,3.827,0,0,1-1.146.828,4.068,4.068,0,0,1-1.843.374,4.659,4.659,0,0,1-3.124-.828,3.49,3.49,0,0,1-1.146-1.826,3.138,3.138,0,0,1-.112-.635q-.022-.317-.023-.612a3.258,3.258,0,0,1,2.483-3.186,17.293,17.293,0,0,1,5.293-.76,7.388,7.388,0,0,0-.157-1.621q-.158-.692-1.079-.692a1.2,1.2,0,0,0-1,.386,1.76,1.76,0,0,0-.371.839q-.023.136-.034.284t-.011.283l-4.247-.023a3,3,0,0,1,1.64-2.869,8.475,8.475,0,0,1,4.023-.873,8.112,8.112,0,0,1,3.719.805,2.58,2.58,0,0,1,1.584,2.415v5.874q0,.544.045,1.224a5.507,5.507,0,0,0,.315,1.451H377.19l-.023-.091-.068-.272q-.022-.182-.056-.442a4.741,4.741,0,0,1-.034-.6v-.023Zm0-3.923q-.27.023-.573.034a5.82,5.82,0,0,0-.618.057,5.73,5.73,0,0,0-1.427.352,1.068,1.068,0,0,0-.753.828.254.254,0,0,1-.011.079.252.252,0,0,0-.011.079.18.18,0,0,0-.022.079v.079a1.523,1.523,0,0,0,.494,1.089,1.543,1.543,0,0,0,1.124.5,1.515,1.515,0,0,0,.573-.114,1.577,1.577,0,0,0,.528-.363,2.177,2.177,0,0,0,.483-.8,4.151,4.151,0,0,0,.191-.9q.022-.249.023-.5v-.5Zm5.546,1.61h4.068a1.967,1.967,0,0,0,.011.215c.008.068.019.14.034.215a2.078,2.078,0,0,0,.483.828,1.16,1.16,0,0,0,.888.374,1.441,1.441,0,0,0,.91-.306.891.891,0,0,0,.393-.714v-.091a.206.206,0,0,0-.023-.091,1.1,1.1,0,0,0-.45-.612,3.573,3.573,0,0,0-1.169-.521,15.085,15.085,0,0,1-3.438-1.134,2.907,2.907,0,0,1-1.708-2.608,3.278,3.278,0,0,1,.022-.374,2.015,2.015,0,0,1,.09-.4,3.694,3.694,0,0,1,1.517-1.928,6.319,6.319,0,0,1,3.7-.885,6.978,6.978,0,0,1,3.573.692,3.556,3.556,0,0,1,1.461,1.531,3.047,3.047,0,0,1,.225.828,6.381,6.381,0,0,1,.045.714l-4.068-.023a1.172,1.172,0,0,0-.36-.873,1.207,1.207,0,0,0-.876-.352,1.342,1.342,0,0,0-.775.238.675.675,0,0,0-.348.556v.136a.762.762,0,0,0,.348.465,2.868,2.868,0,0,0,.933.374q.247.068.506.125t.506.125a14.13,14.13,0,0,1,3.157,1.157,2.762,2.762,0,0,1,1.337,2.7,3.04,3.04,0,0,1-1.528,2.88,8.88,8.88,0,0,1-4.315.862q-3.191,0-4.169-1.179a4.4,4.4,0,0,1-.977-2.9v-.023Zm11.749-2.155a7.386,7.386,0,0,1,1.483-4.071q1.349-1.8,5.079-1.8A7.977,7.977,0,0,1,405.688,148a5,5,0,0,1,1.9,4.332,5.77,5.77,0,0,1-1.506,4.377,6.858,6.858,0,0,1-3.3,1.814,9.1,9.1,0,0,1-.978.17,8.027,8.027,0,0,1-.933.057,6.641,6.641,0,0,1-4.742-1.712,5.92,5.92,0,0,1-1.82-4.524v-.023Zm8.675,0V152.1a5.362,5.362,0,0,0-.472-2.041,1.631,1.631,0,0,0-1.641-.93,1.763,1.763,0,0,0-1.6.862,4.372,4.372,0,0,0-.539,2.336,5.27,5.27,0,0,0,.607,2.823,1.781,1.781,0,0,0,1.528.941,1.551,1.551,0,0,0,1.438-.748,4.451,4.451,0,0,0,.584-1.656q.045-.317.068-.612t.023-.567v-.023Zm5.906-5.715h4.427a.985.985,0,0,0,.034.147,2.2,2.2,0,0,1,.056.329q.023.182.056.42a3.48,3.48,0,0,1,.034.488v.068a4.588,4.588,0,0,1,1.348-1.134,3.963,3.963,0,0,1,2-.476,7.65,7.65,0,0,1,.854.057,5.172,5.172,0,0,1,.989.215,4.5,4.5,0,0,1,1.775,1.055,2.95,2.95,0,0,1,.809,2.256v8.187h-4.248v-6.962a2.177,2.177,0,0,0-.528-1.61,1.734,1.734,0,0,0-1.18-.544h-.068a1.814,1.814,0,0,0-1.2.544,1.9,1.9,0,0,0-.551,1.451v7.121h-4.427v-9.116q0-.454-.023-.9t-.068-.8q-.022-.34-.056-.556l-.034-.215v-.023Zm14.58,0h4.427v11.611h-4.427V146.775Zm0-4.808h4.427v2.857h-4.427v-2.857Zm13.524,11.77h4.427a4.254,4.254,0,0,1-1.809,3.787,7.336,7.336,0,0,1-4.214,1.225,6.009,6.009,0,0,1-4.09-1.168,5.867,5.867,0,0,1-1.753-2.574,6.32,6.32,0,0,1-.292-1.327,11.348,11.348,0,0,1-.068-1.168,5.977,5.977,0,0,1,1.843-4.354,6.259,6.259,0,0,1,4.36-1.542q.427,0,.9.034t.944.1a6.775,6.775,0,0,1,2.877,1.225,3.589,3.589,0,0,1,1.3,3.107l-4.427-.023a2.226,2.226,0,0,0-.4-1.417,1.429,1.429,0,0,0-1.191-.51,1.293,1.293,0,0,0-1.191.93,5.682,5.682,0,0,0-.4,2.268v.453a8.6,8.6,0,0,0,.326,2.279,1.249,1.249,0,0,0,1.27,1.032,1.369,1.369,0,0,0,1.191-.567,3.075,3.075,0,0,0,.4-1.769Z" transform="translate(-222.778 -84.808)"/><path class="a" d="M273.492,59.607h5.082a4.17,4.17,0,0,0,.025.45,2.952,2.952,0,0,0,.1.475,2.38,2.38,0,0,0,.756,1.138,2.753,2.753,0,0,0,1.847.513,3.453,3.453,0,0,0,2.045-.513,1.531,1.531,0,0,0,.731-1.188,1.088,1.088,0,0,0-.012-.188,1.3,1.3,0,0,0-.037-.188,2.163,2.163,0,0,0-.892-1.088,5.088,5.088,0,0,0-2.033-.763c-.032-.006-.066,0-.1-.013s-.063-.029-.1-.037a14.613,14.613,0,0,1-5.416-2.014,4.515,4.515,0,0,1-1.6-3.465c0-.05,0-.1,0-.15s0-.092,0-.125a4.41,4.41,0,0,1,2.219-4.052,9.754,9.754,0,0,1,5.392-1.376c2.926.058,4.863.68,5.813,1.739a5.715,5.715,0,0,1,1.425,3.965l-5.082-.025a1.824,1.824,0,0,0-.595-1.4,2.509,2.509,0,0,0-1.76-.55,2.258,2.258,0,0,0-1.574.488,1.538,1.538,0,0,0-.558,1.088c0,.033,0,.063,0,.087a.577.577,0,0,0,0,.088,1.656,1.656,0,0,0,.607,1,2.853,2.853,0,0,0,1.524.6c.382.055.768.138,1.165.212s.8.164,1.215.263a12.683,12.683,0,0,1,3.867,1.613,3.978,3.978,0,0,1,1.76,3.639,5.053,5.053,0,0,1-2.293,4.665,10.308,10.308,0,0,1-5.515,1.413q-3.941,0-5.9-1.588a5.774,5.774,0,0,1-2.107-4.69v-.025Zm18.194-8.68,4.883-1.776V52.9H299.3v2.952H296.57v5.328a1.989,1.989,0,0,0,.347,1.388,1.364,1.364,0,0,0,.992.338q.223,0,.471-.025c.165-.017.34-.026.521-.05.068-.009.132-.029.2-.038a1.592,1.592,0,0,1,.2-.013v2.927q-.818.125-1.611.2t-1.537.075a6.574,6.574,0,0,1-3.173-.7,2.791,2.791,0,0,1-1.289-2.7V55.855h-2.33V52.9h2.33V50.927Zm17.047,13.007a2.63,2.63,0,0,1-.174.338,2.092,2.092,0,0,1-.248.313,4.347,4.347,0,0,1-1.264.913,4.489,4.489,0,0,1-2.033.413A5.139,5.139,0,0,1,301.569,65a3.92,3.92,0,0,1-1.264-2.014,4.325,4.325,0,0,1-.124-.7,6.033,6.033,0,0,1-.025-.675,3.584,3.584,0,0,1,2.739-3.514,19.08,19.08,0,0,1,5.838-.838,8.142,8.142,0,0,0-.174-1.789q-.173-.763-1.19-.763a1.32,1.32,0,0,0-1.1.425,1.95,1.95,0,0,0-.409.925c-.015.1-.029.2-.037.313s-.012.213-.012.313l-4.685-.025a3.312,3.312,0,0,1,1.81-3.164,9.349,9.349,0,0,1,4.437-.963,8.946,8.946,0,0,1,4.1.888,2.846,2.846,0,0,1,1.748,2.664v6.479q0,.6.049,1.351a6.081,6.081,0,0,0,.347,1.6h-4.685l-.025-.1c-.017-.067-.049-.165-.074-.3s-.037-.3-.062-.488a5.278,5.278,0,0,1-.037-.663v-.025Zm0-4.327q-.3.025-.632.038c-.223.008-.45.033-.682.063a6.5,6.5,0,0,0-1.574.388,1.169,1.169,0,0,0-.831.913A.553.553,0,0,1,305,61.1a.281.281,0,0,0-.012.088.2.2,0,0,0-.025.087v.088a1.68,1.68,0,0,0,.545,1.2,1.7,1.7,0,0,0,1.239.55,1.675,1.675,0,0,0,1.215-.525,2.336,2.336,0,0,0,.533-.888,4.531,4.531,0,0,0,.211-.988c.017-.183.025-.367.025-.55v-.55Zm6.561-6.7h4.884a1.926,1.926,0,0,0,.037.2c.025.117.039.268.062.45.026.2.058.433.074.7s.025.55.025.85a3.027,3.027,0,0,1,1.549-2.026,6.2,6.2,0,0,1,2.739-.55v4.127q-.248-.025-.5-.037c-.165-.008-.33-.01-.5-.012a3.542,3.542,0,0,0-2.343.738,2.754,2.754,0,0,0-.954,2.289V65.51h-4.883V54.855a3.326,3.326,0,0,0-.025-.45c-.016-.117-.037-.267-.062-.45a5.684,5.684,0,0,1-.112-1.026V52.9Zm26.661.2a2.333,2.333,0,0,0-.83-1.763,3.262,3.262,0,0,0-2.293-.763,2.662,2.662,0,0,0-2.838,1.7,11.965,11.965,0,0,0-.657,3.752v.85a10.7,10.7,0,0,0,.88,4,2.655,2.655,0,0,0,2.615,1.5,2.986,2.986,0,0,0,2.367-.863,2.805,2.805,0,0,0,.756-1.888l5.28-.025a6.5,6.5,0,0,1-.05.8,4.623,4.623,0,0,1-.174.8,6.293,6.293,0,0,1-2.28,3.239q-1.81,1.463-5.5,1.463-4.982,0-7.1-2.426a10.016,10.016,0,0,1-2.268-6.429v-.5q-.024-5.178,2.479-7.354a9.543,9.543,0,0,1,6.495-2.176q4.561,0,6.482,1.714a5.618,5.618,0,0,1,1.921,4.39l-5.28-.025Zm6.841-5.7h4.685V65.51H348.8V47.4Zm6.325,11.606a8.147,8.147,0,0,1,1.636-4.49q1.488-1.988,5.6-1.988a8.8,8.8,0,0,1,5.317,1.526,5.514,5.514,0,0,1,2.095,4.778,6.365,6.365,0,0,1-1.661,4.828,7.563,7.563,0,0,1-3.644,2,10.034,10.034,0,0,1-1.078.188,8.843,8.843,0,0,1-1.029.062,7.324,7.324,0,0,1-5.23-1.888,6.531,6.531,0,0,1-2.008-4.99v-.025Zm9.569,0v-.425a5.913,5.913,0,0,0-.521-2.251,1.8,1.8,0,0,0-1.81-1.026,1.944,1.944,0,0,0-1.76.951A4.822,4.822,0,0,0,360,58.832a5.817,5.817,0,0,0,.669,3.114,1.965,1.965,0,0,0,1.686,1.038,1.712,1.712,0,0,0,1.586-.825,4.909,4.909,0,0,0,.645-1.826q.05-.35.074-.675t.025-.625v-.025Zm7-6.1h4.884v7.5a.828.828,0,0,0,.025.2,3.619,3.619,0,0,0,.409,1.5,1.193,1.193,0,0,0,1.128.675,1.7,1.7,0,0,0,1.723-.888,4.888,4.888,0,0,0,.409-2.064V52.9h4.685v9.655q0,.275.012.588t.037.638q.025.175.037.338t.013.313q.049.45.074.763l.025.313h-4.685l-.025-.087q-.025-.088-.074-.288-.025-.175-.062-.425a3.747,3.747,0,0,1-.037-.55,5.309,5.309,0,0,1-1.4,1.238,4.357,4.357,0,0,1-2.293.513,4.552,4.552,0,0,1-3.756-1.4,5.106,5.106,0,0,1-1.128-3.3V52.9Zm24.263-5.5h4.883V65.51h-4.685a1.886,1.886,0,0,1-.049-.188c-.017-.075-.033-.154-.05-.238a7.85,7.85,0,0,1-.087-.913l-.012-.413a.888.888,0,0,1-.111.3,2.185,2.185,0,0,1-.211.3,3.988,3.988,0,0,1-1.227.963,4.973,4.973,0,0,1-1.7.563c-.083.017-.161.029-.235.038a2.131,2.131,0,0,1-.235.012h-.186a.754.754,0,0,1-.186-.025,6.075,6.075,0,0,1-3.656-1.588q-1.624-1.438-1.623-5.29a6.662,6.662,0,0,1,1.264-4.34,5.774,5.774,0,0,1,2.777-1.988q.3-.075.62-.125a4.04,4.04,0,0,1,.62-.05q.2,0,.4.012t.4.012a6.338,6.338,0,0,1,1.909.5,2.835,2.835,0,0,1,1.388,1.251V47.4Zm.2,11.606a5.129,5.129,0,0,0-.582-2.414,1.87,1.87,0,0,0-1.748-1.113,1.707,1.707,0,0,0-1.661,1.038,5.8,5.8,0,0,0-.5,2.514,6.1,6.1,0,0,0,.57,2.939,1.753,1.753,0,0,0,1.586,1.013,1.712,1.712,0,0,0,1.587-.825,4.915,4.915,0,0,0,.645-1.826q.05-.35.074-.675t.025-.625Z" transform="translate(-182.644 -14.421)"/><path class="a" d="M280.036,137.084v.052a3.127,3.127,0,0,1-.662,2.065,2.219,2.219,0,0,1-.742.584,2.086,2.086,0,0,1-.907.195,1.909,1.909,0,0,1-.879-.2,2.36,2.36,0,0,1-.744-.615,2.8,2.8,0,0,1-.509-.915,3.556,3.556,0,0,1-.166-1.11v-.052a3.556,3.556,0,0,1,.166-1.11,2.8,2.8,0,0,1,.509-.915,2.358,2.358,0,0,1,.744-.615,1.909,1.909,0,0,1,.879-.2,2.058,2.058,0,0,1,.907.2,2.176,2.176,0,0,1,.742.6,2.611,2.611,0,0,1,.5.9,3.726,3.726,0,0,1,.165,1.147Zm-4.6,3.181v-1.623a3,3,0,0,0,.561.928,2.574,2.574,0,0,0,.827.623,2.409,2.409,0,0,0,1.028.227,2.487,2.487,0,0,0,1.089-.236,2.544,2.544,0,0,0,.885-.712,3.576,3.576,0,0,0,.779-2.337v-.052a3.576,3.576,0,0,0-.779-2.337,2.541,2.541,0,0,0-.885-.712,2.483,2.483,0,0,0-1.089-.236,2.4,2.4,0,0,0-1.028.227,2.574,2.574,0,0,0-.827.623,3,3,0,0,0-.561.929v-4.4h-.558v9.089Zm5.726,2.039v.454a2.153,2.153,0,0,0,.279.041c.1.006.192.011.279.011a2.063,2.063,0,0,0,.827-.15,1.6,1.6,0,0,0,.636-.485,3.073,3.073,0,0,0,.472-.885l2.753-7.336h-.545l-2.1,5.726-2.168-5.726h-.571l2.467,6.388-.325.831a2.5,2.5,0,0,1-.368.706,1.183,1.183,0,0,1-.476.37,1.58,1.58,0,0,1-.61.106c-.087,0-.177,0-.273-.011A2.161,2.161,0,0,1,281.165,142.3Z" transform="translate(-183.674 -76.808)"/><path class="a" d="M60.941,101.28,51.86,112.242a19.652,19.652,0,0,1-1.9,2.09,13.752,13.752,0,0,1-3.1,2.125,13.637,13.637,0,1,1-6.1-25.834q.3,0,.589.013c.191-.526.4-1.048.626-1.558a15.15,15.15,0,0,1,26.954-1.42,2.092,2.092,0,0,1-3.621,2.1A11.024,11.024,0,0,0,61.3,85.73a10.979,10.979,0,0,0-15.423,4.9c-.128.276-.25.56-.365.847q.311.116.615.246a13.688,13.688,0,0,1,4.509,3.13A2.092,2.092,0,1,1,47.6,97.734a9.473,9.473,0,1,0,.109,12.94c.624-.678,1.2-1.434,1.787-2.145l9.417-11.367a14.583,14.583,0,0,1,1.247-1.313,12.887,12.887,0,0,1,3.054-2.133,12.771,12.771,0,1,1-3.525,20.229,2.092,2.092,0,0,1,3.031-2.883,8.569,8.569,0,1,0,2.362-13.61,8.488,8.488,0,0,0-1.826,1.237A23.37,23.37,0,0,0,60.941,101.28Z" transform="translate(0 -38.93)"/><path class="a" d="M66.914,66.682a2.092,2.092,0,1,1-3.621-2.1,21.947,21.947,0,0,1,38,0,2.092,2.092,0,0,1-3.621,2.1,17.858,17.858,0,0,0-6.516-6.516,17.819,17.819,0,0,0-17.723,0A17.867,17.867,0,0,0,66.914,66.682Z" transform="translate(-26.603 -19.303)"/><path class="a" d="M44.445,43.988a2.092,2.092,0,0,1-3.621-2.1,28.635,28.635,0,0,1,24.8-14.32A28.477,28.477,0,0,1,79.9,31.394,28.777,28.777,0,0,1,90.409,41.885a2.092,2.092,0,1,1-3.621,2.1,24.578,24.578,0,0,0-8.969-8.967,24.51,24.51,0,0,0-24.4,0A24.589,24.589,0,0,0,44.445,43.988Z" transform="translate(-9.945)"/></g></svg>